<svg width="455" height="455" viewBox="0 0 455 455" fill="none" xmlns="http://www.w3.org/2000/svg">
<rect x="0.5" y="0.5" width="454" height="454" rx="94.5" fill="#080808" stroke="#373737"/>
<path d="M384.047 206.19L159.337 76.2425C143.398 67.0912 123.54 78.5957 123.54 96.8982V356.532C123.54 374.835 143.398 386.339 159.337 377.188L384.047 247.24C399.986 238.35 399.986 215.603 384.047 206.19Z" fill="#0044E9"/>
<path d="M338.581 65C306.704 72.0595 274.826 79.3805 242.949 86.4401C235.371 112.325 225.965 136.903 215.513 160.173C199.836 139.779 183.113 120.953 165.607 103.958C133.729 110.756 101.59 117.816 69.7129 125.137C103.942 150.237 136.081 181.613 164.562 218.741C133.729 262.928 97.6711 299.533 59 328.033C90.8775 335.092 122.755 342.413 154.632 349.473C173.445 330.909 191.474 310.515 208.197 288.029C220.478 313.13 231.452 340.06 240.336 368.56C272.475 375.619 304.613 382.94 336.491 390C319.507 331.694 295.468 278.616 266.465 231.814C296.775 182.659 321.597 126.444 338.581 65Z" fill="white"/>
</svg>
