<svg width="192" height="190" viewBox="0 0 192 190" fill="none" xmlns="http://www.w3.org/2000/svg">
<path d="M154.389 52.9721L70.0631 4.31017C64.0818 0.879823 56.6297 5.19225 56.6297 12.053V109.426C56.6297 116.336 64.0818 120.599 70.0631 117.169L154.389 68.5068C160.371 65.0274 160.371 56.4515 154.389 52.9721Z" fill="#0044E9"/>
<path d="M137.377 0C125.415 2.69528 113.452 5.34154 101.49 8.03682C98.5971 17.6908 95.1652 26.9038 91.194 35.6267C85.3108 27.9819 79.0353 20.9741 72.4657 14.5055C60.4541 17.2008 48.4916 19.847 36.48 22.5423C49.325 32.0003 61.3856 43.7125 72.0735 57.5809C60.5032 74.0956 46.9717 87.866 32.4598 98.5491C44.4223 101.244 56.3849 103.891 68.3475 106.586C75.4073 99.6272 82.124 91.9334 88.3995 83.6026C93.057 93.0605 97.1263 103.107 100.46 113.741C112.521 116.436 124.532 119.131 136.593 121.826C130.219 99.9702 121.198 80.0742 110.265 62.5304C121.64 44.1045 130.955 23.0814 137.377 0Z" fill="white"/>
<path d="M35.7406 161.078H25.1018L18.3851 169.409L11.0311 161.078H0.24514L12.5999 174.751L0 189.158H10.5898L17.7477 180.582L25.2979 189.158H36.1819L23.5329 175.192L35.7406 161.078Z" fill="white"/>
<path d="M83.7863 159.46H75.6478V189.157H83.7863V159.46Z" fill="white"/>
<path d="M55.353 167.057C55.6472 166.567 56.0394 166.224 56.5787 165.93C57.118 165.685 57.7063 165.538 58.4417 165.538C59.2752 165.538 60.1086 165.685 60.8931 165.93C61.6775 166.175 62.3148 166.42 62.707 166.567L64.8152 160.883C64.0308 160.491 63.0012 160.148 61.8246 159.805C60.6479 159.462 59.1771 159.266 57.5102 159.266C55.402 159.266 53.539 159.658 52.0192 160.393C50.4503 161.177 49.2737 162.255 48.4402 163.676C47.6068 165.097 47.1655 166.812 47.1655 168.773V168.871H42.606V175.29H47.1655V189.159C47.6068 189.159 48.1461 189.159 48.7834 189.159C49.4208 189.159 50.2052 189.159 51.0877 189.159H54.9608V175.29H63.2954V168.871H54.9608V168.773C54.9118 168.087 55.0588 167.547 55.353 167.057Z" fill="white"/>
<path d="M104.722 155.688C103.3 155.688 102.172 156.031 101.339 156.766C100.506 157.501 100.113 158.432 100.113 159.559C100.113 160.784 100.506 161.715 101.339 162.401C102.172 163.087 103.3 163.381 104.722 163.381C106.144 163.381 107.271 163.038 108.105 162.303C108.938 161.568 109.33 160.637 109.33 159.51C109.33 158.285 108.938 157.354 108.105 156.668C107.32 156.031 106.193 155.688 104.722 155.688Z" fill="white"/>
<path d="M108.789 167.693H100.651V189.158H108.789V167.693Z" fill="white"/>
<path d="M133.991 174.702C134.971 174.359 136.148 174.163 137.57 174.163C138.501 174.163 139.384 174.261 140.266 174.457C141.1 174.653 141.933 174.898 142.718 175.241C143.502 175.584 144.189 175.927 144.777 176.319L149.238 170.536C147.62 169.458 145.757 168.625 143.649 168.086C141.541 167.547 139.237 167.253 136.736 167.253C134.04 167.253 131.638 167.743 129.529 168.674C127.421 169.654 125.705 170.977 124.48 172.644C123.254 174.31 122.617 176.221 122.617 178.426C122.617 180.582 123.254 182.494 124.48 184.16C125.705 185.826 127.47 187.149 129.677 188.129C131.932 189.109 134.481 189.55 137.423 189.55C139.776 189.55 141.933 189.305 143.845 188.766C145.757 188.276 147.522 187.59 149.189 186.806L144.875 181.121C144.385 181.317 143.796 181.513 143.159 181.709C142.473 181.905 141.688 182.101 140.757 182.248C139.825 182.396 138.747 182.493 137.472 182.493C136.099 182.493 134.922 182.297 133.991 181.954C133.01 181.611 132.275 181.121 131.785 180.484C131.294 179.847 131.049 179.112 131.049 178.279C131.049 177.446 131.294 176.711 131.785 176.074C132.275 175.535 133.01 175.045 133.991 174.702Z" fill="white"/>
<path d="M191.303 167.693H180.517L169.633 176.318V159.46H161.886V189.157H169.633V184.011L174.29 180.483L181.301 189.157H190.616L179.83 176.318L191.303 167.693Z" fill="white"/>
</svg>
