<svg width="26" height="26" viewBox="0 0 26 26" fill="none" xmlns="http://www.w3.org/2000/svg">
<g id="majesticons:door-exit">
<g id="Group">
<path id="Vector" fill-rule="evenodd" clip-rule="evenodd" d="M10.9827 1.96615C11.4679 1.82059 11.9805 1.79048 12.4794 1.87822C12.9783 1.96596 13.4499 2.16913 13.8563 2.47151C14.2628 2.77388 14.5929 3.16709 14.8204 3.61975C15.0479 4.0724 15.1664 4.57197 15.1665 5.07857V20.9212C15.1664 21.4278 15.0479 21.9274 14.8204 22.3801C14.5929 22.8327 14.2628 23.2259 13.8563 23.5283C13.4499 23.8307 12.9783 24.0338 12.4794 24.1216C11.9805 24.2093 11.4679 24.1792 10.9827 24.0337L4.48267 22.0837C3.81328 21.8828 3.22645 21.4716 2.80923 20.911C2.392 20.3503 2.16662 19.6701 2.1665 18.9712V7.02857C2.16662 6.32971 2.392 5.6495 2.80923 5.08884C3.22645 4.52819 3.81328 4.11696 4.48267 3.91615L10.9827 1.96615ZM16.2498 4.33324C16.2498 4.04592 16.364 3.77037 16.5671 3.5672C16.7703 3.36404 17.0459 3.2499 17.3332 3.2499H20.5832C21.4451 3.2499 22.2718 3.59231 22.8813 4.20181C23.4908 4.8113 23.8332 5.63795 23.8332 6.4999V7.58324C23.8332 7.87055 23.719 8.1461 23.5159 8.34927C23.3127 8.55243 23.0372 8.66657 22.7498 8.66657C22.4625 8.66657 22.187 8.55243 21.9838 8.34927C21.7806 8.1461 21.6665 7.87055 21.6665 7.58324V6.4999C21.6665 6.21258 21.5524 5.93703 21.3492 5.73387C21.146 5.53071 20.8705 5.41657 20.5832 5.41657H17.3332C17.0459 5.41657 16.7703 5.30243 16.5671 5.09927C16.364 4.8961 16.2498 4.62055 16.2498 4.33324ZM22.7498 17.3332C23.0372 17.3332 23.3127 17.4474 23.5159 17.6505C23.719 17.8537 23.8332 18.1293 23.8332 18.4166V19.4999C23.8332 20.3619 23.4908 21.1885 22.8813 21.798C22.2718 22.4075 21.4451 22.7499 20.5832 22.7499H17.3332C17.0459 22.7499 16.7703 22.6358 16.5671 22.4326C16.364 22.2294 16.2498 21.9539 16.2498 21.6666C16.2498 21.3793 16.364 21.1037 16.5671 20.9005C16.7703 20.6974 17.0459 20.5832 17.3332 20.5832H20.5832C20.8705 20.5832 21.146 20.4691 21.3492 20.2659C21.5524 20.0628 21.6665 19.7872 21.6665 19.4999V18.4166C21.6665 18.1293 21.7806 17.8537 21.9838 17.6505C22.187 17.4474 22.4625 17.3332 22.7498 17.3332ZM9.74984 11.9166C9.46252 11.9166 9.18697 12.0307 8.98381 12.2339C8.78064 12.437 8.6665 12.7126 8.6665 12.9999C8.6665 13.2872 8.78064 13.5628 8.98381 13.7659C9.18697 13.9691 9.46252 14.0832 9.74984 14.0832H9.75092C10.0382 14.0832 10.3138 13.9691 10.517 13.7659C10.7201 13.5628 10.8343 13.2872 10.8343 12.9999C10.8343 12.7126 10.7201 12.437 10.517 12.2339C10.3138 12.0307 10.0382 11.9166 9.75092 11.9166H9.74984Z" fill="white" fill-opacity="0.5"/>
<path id="Vector_2" d="M17.333 12.9999H22.7497M22.7497 12.9999L20.583 10.8333M22.7497 12.9999L20.583 15.1666" stroke="white" stroke-opacity="0.5" stroke-width="2.16667" stroke-linecap="round" stroke-linejoin="round"/>
</g>
</g>
</svg>
