<svg width="26" height="26" viewBox="0 0 26 26" fill="none" xmlns="http://www.w3.org/2000/svg">
<g id="ant-design:home-filled">
<path id="Vector" d="M24.032 12.8223L13.5736 2.37156C13.4983 2.29611 13.4089 2.23625 13.3104 2.19541C13.212 2.15457 13.1064 2.13354 12.9998 2.13354C12.8932 2.13354 12.7877 2.15457 12.6892 2.19541C12.5907 2.23625 12.5013 2.29611 12.426 2.37156L1.96758 12.8223C1.66289 13.127 1.49023 13.5409 1.49023 13.9725C1.49023 14.8688 2.21895 15.5975 3.11523 15.5975H4.21719V23.0548C4.21719 23.5042 4.58027 23.8673 5.02969 23.8673H10.3748C10.9271 23.8673 11.3748 23.4195 11.3748 22.8673V19.1798C11.3748 18.6275 11.8225 18.1798 12.3748 18.1798H13.2186C13.7708 18.1798 14.2186 18.6275 14.2186 19.1798V22.8673C14.2186 23.4195 14.6663 23.8673 15.2186 23.8673H20.9699C21.4193 23.8673 21.7824 23.5042 21.7824 23.0548V15.5975H22.8844C23.316 15.5975 23.7299 15.4274 24.0346 15.1202C24.6668 14.4854 24.6668 13.4571 24.032 12.8223Z" fill="white" fill-opacity="0.5"/>
</g>
</svg>
