<svg width="26" height="26" viewBox="0 0 26 26" fill="none" xmlns="http://www.w3.org/2000/svg">
<g id="solar:letter-bold">
<path id="Vector" fill-rule="evenodd" clip-rule="evenodd" d="M3.43617 5.60304C2.1665 6.87162 2.1665 8.91479 2.1665 13C2.1665 17.0853 2.1665 19.1285 3.43617 20.397C4.70475 21.6667 6.74792 21.6667 10.8332 21.6667H15.1665C19.2518 21.6667 21.2949 21.6667 22.5635 20.397C23.8332 19.1285 23.8332 17.0853 23.8332 13C23.8332 8.91479 23.8332 6.87162 22.5635 5.60304C21.2949 4.33337 19.2518 4.33337 15.1665 4.33337H10.8332C6.74792 4.33337 4.70475 4.33337 3.43617 5.60304ZM20.1238 8.14671C20.2617 8.31223 20.3282 8.52571 20.3087 8.74024C20.2892 8.95476 20.1853 9.15276 20.0198 9.29071L17.6408 11.2732C16.6799 12.0749 15.9021 12.7227 15.2142 13.1647C14.4992 13.6251 13.8026 13.9155 12.9998 13.9155C12.1971 13.9155 11.5005 13.624 10.7844 13.1647C10.0976 12.7227 9.31975 12.0738 8.35884 11.2743L5.97984 9.29179C5.8142 9.15388 5.71013 8.95581 5.69052 8.74117C5.67092 8.52653 5.73738 8.31289 5.8753 8.14725C6.01321 7.98161 6.21127 7.87754 6.42592 7.85794C6.64056 7.83833 6.8542 7.90479 7.01984 8.04271L9.35984 9.99162C10.3706 10.8334 11.0715 11.4162 11.6652 11.7975C12.2383 12.1659 12.6272 12.2905 13.0009 12.2905C13.3747 12.2905 13.7636 12.167 14.3367 11.7975C14.9293 11.4162 15.6313 10.8334 16.642 9.99162L18.9809 8.04162C19.1466 7.9039 19.3602 7.8376 19.5747 7.8573C19.7892 7.87701 19.986 7.98111 20.1238 8.14671Z" fill="white" fill-opacity="0.5"/>
</g>
</svg>
