<svg width="26" height="26" viewBox="0 0 26 26" fill="none" xmlns="http://www.w3.org/2000/svg">
<g id="solar:bookmark-bold">
<path id="Vector" fill-rule="evenodd" clip-rule="evenodd" d="M22.75 12.0228V17.4319C22.75 20.7859 22.75 22.464 21.9548 23.1963C21.5757 23.5462 21.0968 23.7661 20.5866 23.8246C19.5173 23.947 18.2683 22.842 15.7712 20.6331C14.6662 19.657 14.1147 19.1685 13.4767 19.0406C13.1621 18.9772 12.8379 18.9772 12.5233 19.0406C11.8842 19.1685 11.3328 19.657 10.2288 20.6331C7.73175 22.842 6.48267 23.947 5.41342 23.8235C4.90234 23.7649 4.42316 23.5452 4.04517 23.1963C3.25 22.464 3.25 20.787 3.25 17.4319V12.0217C3.25 7.37746 3.25 5.05479 4.67783 3.61071C6.10567 2.16663 8.4045 2.16663 13 2.16663C17.5966 2.16663 19.8943 2.16663 21.3222 3.60963C22.75 5.05371 22.75 7.37746 22.75 12.0228ZM8.9375 6.49996C8.9375 6.28447 9.0231 6.07781 9.17548 5.92544C9.32785 5.77306 9.53451 5.68746 9.75 5.68746H16.25C16.4655 5.68746 16.6722 5.77306 16.8245 5.92544C16.9769 6.07781 17.0625 6.28447 17.0625 6.49996C17.0625 6.71545 16.9769 6.92211 16.8245 7.07448C16.6722 7.22686 16.4655 7.31246 16.25 7.31246H9.75C9.53451 7.31246 9.32785 7.22686 9.17548 7.07448C9.0231 6.92211 8.9375 6.71545 8.9375 6.49996Z" fill="white" fill-opacity="0.5"/>
</g>
</svg>
