<svg width="26" height="26" viewBox="0 0 26 26" fill="none" xmlns="http://www.w3.org/2000/svg">
<g id="ri:chat-history-fill">
<path id="Vector" d="M12.9999 2.16663C18.9831 2.16663 23.8332 7.01671 23.8332 13C23.8332 18.9832 18.9831 23.8333 12.9999 23.8333C11.2208 23.8361 9.46863 23.3988 7.89952 22.5604L3.70042 23.4927C2.98593 23.6514 2.34867 23.0139 2.50749 22.2995L3.44052 18.1025C2.60134 16.5328 2.16366 14.7799 2.16652 13C2.16652 7.01671 7.0166 2.16663 12.9999 2.16663ZM14.0832 8.58329C14.0832 8.03101 13.6355 7.58329 13.0832 7.58329H12.9165C12.3642 7.58329 11.9165 8.03101 11.9165 8.58329V14.1666C11.9165 14.7189 12.3642 15.1666 12.9165 15.1666H17.4165C17.9688 15.1666 18.4165 14.7189 18.4165 14.1666V14C18.4165 13.4477 17.9688 13 17.4165 13H15.0832C14.5309 13 14.0832 12.5522 14.0832 12V8.58329Z" fill="white" fill-opacity="0.5"/>
</g>
</svg>
