<svg width="26" height="26" viewBox="0 0 26 26" fill="none" xmlns="http://www.w3.org/2000/svg">
<path fill-rule="evenodd" clip-rule="evenodd" d="M22.75 12.0222V17.4313C22.75 20.7853 22.75 22.4634 21.9548 23.1957C21.5757 23.5456 21.0968 23.7655 20.5866 23.824C19.5173 23.9464 18.2683 22.8414 15.7712 20.6325C14.6662 19.6564 14.1147 19.1679 13.4767 19.04C13.1621 18.9765 12.8379 18.9765 12.5233 19.04C11.8842 19.1679 11.3328 19.6564 10.2288 20.6325C7.73175 22.8414 6.48267 23.9464 5.41342 23.8229C4.90234 23.7643 4.42316 23.5446 4.04517 23.1957C3.25 22.4634 3.25 20.7863 3.25 17.4313V12.0211C3.25 7.37685 3.25 5.05418 4.67783 3.6101C6.10567 2.16602 8.4045 2.16602 13 2.16602C17.5966 2.16602 19.8943 2.16602 21.3222 3.60902C22.75 5.0531 22.75 7.37685 22.75 12.0222ZM8.9375 6.49935C8.9375 6.28386 9.0231 6.0772 9.17548 5.92482C9.32785 5.77245 9.53451 5.68685 9.75 5.68685H16.25C16.4655 5.68685 16.6722 5.77245 16.8245 5.92482C16.9769 6.0772 17.0625 6.28386 17.0625 6.49935C17.0625 6.71484 16.9769 6.9215 16.8245 7.07387C16.6722 7.22625 16.4655 7.31185 16.25 7.31185H9.75C9.53451 7.31185 9.32785 7.22625 9.17548 7.07387C9.0231 6.9215 8.9375 6.71484 8.9375 6.49935Z" fill="white"/>
</svg>
