<svg width="36" height="36" viewBox="0 0 36 36" fill="none" xmlns="http://www.w3.org/2000/svg">
<g clip-path="url(#clip0_991_2302)">
<path fill-rule="evenodd" clip-rule="evenodd" d="M16.5 3C14.5109 3 12.6032 3.79018 11.1967 5.1967C9.79018 6.60322 9 8.51088 9 10.5C9 12.4891 9.79018 14.3968 11.1967 15.8033C12.6032 17.2098 14.5109 18 16.5 18C18.4891 18 20.3968 17.2098 21.8033 15.8033C23.2098 14.3968 24 12.4891 24 10.5C24 8.51088 23.2098 6.60322 21.8033 5.1967C20.3968 3.79018 18.4891 3 16.5 3ZM16.5 19.5C12.9075 19.5 9.6375 20.541 7.233 22.008C6.033 22.74 5.007 23.604 4.266 24.543C3.537 25.464 3 26.5695 3 27.75C3 29.0175 3.6165 30.0165 4.5045 30.729C5.3445 31.404 6.453 31.851 7.6305 32.163C9.9975 32.7885 13.1565 33 16.5 33C16.845 33 17.19 32.997 17.5275 32.9925C17.7787 32.989 18.025 32.9226 18.2439 32.7991C18.4627 32.6757 18.647 32.4993 18.7799 32.286C18.9128 32.0728 18.99 31.8296 19.0044 31.5788C19.0189 31.328 18.9701 31.0776 18.8625 30.8505C18.2924 29.647 17.9978 28.3316 18 27C18 25.122 18.5745 23.382 19.5555 21.9405C19.7013 21.7263 19.7891 21.4779 19.8104 21.2197C19.8317 20.9614 19.7858 20.7021 19.677 20.4669C19.5682 20.2317 19.4004 20.0286 19.1898 19.8776C18.9793 19.7266 18.7332 19.6326 18.4755 19.605C17.8305 19.536 17.1705 19.5 16.5 19.5Z" fill="white"/>
<path d="M22 27L30 27" stroke="white" stroke-width="2.5" stroke-linecap="round"/>
<path d="M26 31L26 23" stroke="white" stroke-width="2.5" stroke-linecap="round"/>
</g>
<defs>
<clipPath id="clip0_991_2302">
<rect width="36" height="36" fill="white"/>
</clipPath>
</defs>
</svg>
