<svg width="36" height="36" viewBox="0 0 36 36" fill="none" xmlns="http://www.w3.org/2000/svg">
<g clip-path="url(#clip0_991_2313)">
<path fill-rule="evenodd" clip-rule="evenodd" d="M16.5 3C14.5109 3 12.6032 3.79018 11.1967 5.1967C9.79018 6.60322 9 8.51088 9 10.5C9 12.4891 9.79018 14.3968 11.1967 15.8033C12.6032 17.2098 14.5109 18 16.5 18C18.4891 18 20.3968 17.2098 21.8033 15.8033C23.2098 14.3968 24 12.4891 24 10.5C24 8.51088 23.2098 6.60322 21.8033 5.1967C20.3968 3.79018 18.4891 3 16.5 3ZM16.5 19.5C12.9075 19.5 9.6375 20.541 7.233 22.008C6.033 22.74 5.007 23.604 4.266 24.543C3.537 25.464 3 26.5695 3 27.75C3 29.0175 3.6165 30.0165 4.5045 30.729C5.3445 31.404 6.453 31.851 7.6305 32.163C9.9975 32.7885 13.1565 33 16.5 33C16.845 33 17.19 32.997 17.5275 32.9925C17.7787 32.989 18.025 32.9226 18.2439 32.7991C18.4627 32.6757 18.647 32.4993 18.7799 32.286C18.9128 32.0728 18.99 31.8296 19.0044 31.5788C19.0189 31.328 18.9701 31.0776 18.8625 30.8505C18.2924 29.647 17.9978 28.3316 18 27C18 25.122 18.5745 23.382 19.5555 21.9405C19.7013 21.7263 19.7892 21.4779 19.8104 21.2197C19.8317 20.9614 19.7858 20.7021 19.677 20.4669C19.5682 20.2317 19.4004 20.0286 19.1898 19.8776C18.9793 19.7266 18.7332 19.6326 18.4755 19.605C17.8305 19.536 17.1705 19.5 16.5 19.5ZM32.562 24.102C32.8352 23.8191 32.9864 23.4402 32.983 23.0469C32.9796 22.6536 32.8218 22.2774 32.5437 21.9993C32.2656 21.7212 31.8894 21.5634 31.4961 21.56C31.1028 21.5566 30.7239 21.7078 30.441 21.981L25.668 26.754L23.547 24.633C23.2641 24.3598 22.8852 24.2086 22.4919 24.212C22.0986 24.2154 21.7224 24.3732 21.4443 24.6513C21.1662 24.9294 21.0084 25.3056 21.005 25.6989C21.0016 26.0922 21.1528 26.4711 21.426 26.754L24.501 29.829C24.6542 29.9823 24.8362 30.1039 25.0364 30.1869C25.2366 30.2698 25.4513 30.3125 25.668 30.3125C25.8847 30.3125 26.0994 30.2698 26.2996 30.1869C26.4998 30.1039 26.6818 29.9823 26.835 29.829L32.562 24.102Z" fill="white"/>
</g>
<defs>
<clipPath id="clip0_991_2313">
<rect width="36" height="36" fill="white"/>
</clipPath>
</defs>
</svg>
