<svg width="30" height="30" viewBox="0 0 30 30" fill="none" xmlns="http://www.w3.org/2000/svg">
<g clip-path="url(#clip0_960_943)">
<path d="M29.125 11.0156V11.0145C29.1225 8.82338 28.251 6.7227 26.7017 5.17334C25.1523 3.62398 23.0516 2.75247 20.8605 2.75H20.8594C18.5822 2.75 16.508 3.57571 15 5.04084C13.492 3.57571 11.4178 2.75 9.14062 2.75L9.1395 2.75C6.94837 2.75247 4.8477 3.62398 3.29834 5.17334C1.74898 6.7227 0.87747 8.82337 0.875 11.0145V11.0156C0.875 15.5851 4.22774 19.5547 7.36237 22.2999C10.5407 25.0833 13.7768 26.8516 14.0854 27.0152C14.3667 27.1659 14.6809 27.2447 15 27.2447C15.3191 27.2447 15.6333 27.1659 15.9146 27.0152C16.2232 26.8516 19.4593 25.0833 22.6376 22.2999C25.7723 19.5547 29.125 15.5851 29.125 11.0156Z" fill="#DA0000" stroke="white" stroke-width="2"/>
</g>
<defs>
<clipPath id="clip0_960_943">
<rect width="30" height="30" fill="white"/>
</clipPath>
</defs>
</svg>
