<svg width="24" height="26" viewBox="0 0 24 26" fill="none" xmlns="http://www.w3.org/2000/svg">
	<path fill-rule="evenodd" clip-rule="evenodd" d="M4.5 8C4.5 6.01088 5.29018 4.10322 6.6967 2.6967C8.10322 1.29018 10.0109 0.5 12 0.5C13.9891 0.5 15.8968 1.29018 17.3033 2.6967C18.7098 4.10322 19.5 6.01088 19.5 8H20.75C21.413 8 22.0489 8.26339 22.5178 8.73223C22.9866 9.20107 23.25 9.83696 23.25 10.5V23C23.25 23.663 22.9866 24.2989 22.5178 24.7678C22.0489 25.2366 21.413 25.5 20.75 25.5H3.25C2.58696 25.5 1.95107 25.2366 1.48223 24.7678C1.01339 24.2989 0.75 23.663 0.75 23V10.5C0.75 9.83696 1.01339 9.20107 1.48223 8.73223C1.95107 8.26339 2.58696 8 3.25 8H4.5ZM12 3C13.3261 3 14.5979 3.52678 15.5355 4.46447C16.4732 5.40215 17 6.67392 17 8H7C7 6.67392 7.52678 5.40215 8.46447 4.46447C9.40215 3.52678 10.6739 3 12 3ZM14.5 15.5C14.5 15.9388 14.3845 16.3699 14.165 16.75C13.9456 17.13 13.63 17.4456 13.25 17.665V19.25C13.25 19.5815 13.1183 19.8995 12.8839 20.1339C12.6495 20.3683 12.3315 20.5 12 20.5C11.6685 20.5 11.3505 20.3683 11.1161 20.1339C10.8817 19.8995 10.75 19.5815 10.75 19.25V17.665C10.2734 17.3898 9.90097 16.9651 9.69039 16.4566C9.4798 15.9482 9.44286 15.3845 9.5853 14.8529C9.72773 14.3214 10.0416 13.8517 10.4782 13.5166C10.9148 13.1816 11.4497 13 12 13C12.663 13 13.2989 13.2634 13.7678 13.7322C14.2366 14.2011 14.5 14.837 14.5 15.5Z" fill="white"/>
</svg>
