<svg width="30" height="30" viewBox="0 0 30 30" fill="none" xmlns="http://www.w3.org/2000/svg">
	<g clip-path="url(#clip0_960_950)">
		<path fill-rule="evenodd" clip-rule="evenodd" d="M7.5 10C7.5 8.01088 8.29018 6.10322 9.6967 4.6967C11.1032 3.29018 13.0109 2.5 15 2.5C16.9891 2.5 18.8968 3.29018 20.3033 4.6967C21.7098 6.10322 22.5 8.01088 22.5 10H23.75C24.413 10 25.0489 10.2634 25.5178 10.7322C25.9866 11.2011 26.25 11.837 26.25 12.5V25C26.25 25.663 25.9866 26.2989 25.5178 26.7678C25.0489 27.2366 24.413 27.5 23.75 27.5H6.25C5.58696 27.5 4.95107 27.2366 4.48223 26.7678C4.01339 26.2989 3.75 25.663 3.75 25V12.5C3.75 11.837 4.01339 11.2011 4.48223 10.7322C4.95107 10.2634 5.58696 10 6.25 10H7.5ZM15 5C16.3261 5 17.5979 5.52678 18.5355 6.46447C19.4732 7.40215 20 8.67392 20 10H10C10 8.67392 10.5268 7.40215 11.4645 6.46447C12.4021 5.52678 13.6739 5 15 5ZM17.5 17.5C17.5 17.9388 17.3845 18.3699 17.165 18.75C16.9456 19.13 16.63 19.4456 16.25 19.665V21.25C16.25 21.5815 16.1183 21.8995 15.8839 22.1339C15.6495 22.3683 15.3315 22.5 15 22.5C14.6685 22.5 14.3505 22.3683 14.1161 22.1339C13.8817 21.8995 13.75 21.5815 13.75 21.25V19.665C13.2734 19.3898 12.901 18.9651 12.6904 18.4566C12.4798 17.9482 12.4429 17.3845 12.5853 16.8529C12.7277 16.3214 13.0416 15.8517 13.4782 15.5166C13.9148 15.1816 14.4497 15 15 15C15.663 15 16.2989 15.2634 16.7678 15.7322C17.2366 16.2011 17.5 16.837 17.5 17.5Z" fill="gray"/>
	</g>
	<defs>
		<clipPath id="clip0_960_950">
			<rect width="30" height="30" fill="gray"/>
		</clipPath>
	</defs>
</svg>
