<svg xmlns="http://www.w3.org/2000/svg" width="139" height="32" viewBox="0 0 139 32" fill="none">
<g clip-path="url(#clip0_204_861)">
<path d="M31.4734 13.9277L9.71508 1.13283C8.17176 0.231786 6.22363 1.36453 6.22363 3.16662V28.7306C6.22363 30.5327 8.14646 31.6654 9.68978 30.7644L31.4481 17.9695C33.0167 17.0942 33.0167 14.8287 31.4734 13.9277Z" fill="#0044E9"/>
<path d="M27.0714 0C23.9847 0.695092 20.8981 1.41593 17.8114 2.11102C17.0777 4.63395 16.1669 7.0539 15.1549 9.34513C13.6369 7.33709 12.0177 5.48351 10.3225 3.81014C7.23589 4.50523 4.12395 5.22607 1.03731 5.92116C4.35166 8.3926 7.4636 11.4819 10.2213 15.1376C7.23589 19.4626 3.74445 23.0668 0 25.8986C3.08664 26.5937 6.17328 27.3146 9.25992 28.0097C11.0815 26.1818 12.8273 24.1738 14.4465 21.9598C15.6356 24.4312 16.6982 27.0829 17.5584 29.889C20.6704 30.5841 23.7823 31.3049 26.8689 32C25.2244 26.2591 22.8968 21.033 20.0632 16.4248C23.0233 11.5849 25.4268 6.07562 27.0714 0Z" fill="white"/>
<path d="M58.7223 9.93726H53.2575L49.766 14.3138L45.971 9.93726H40.4049L46.8059 17.1199L40.3037 24.6887H45.7433L49.4624 20.1834L53.3587 24.6887H58.9501L52.4226 17.3516L58.7223 9.93726Z" fill="white"/>
<path d="M83.5417 9.08789H79.3418V24.6889H83.5417V9.08789Z" fill="white"/>
<path d="M68.8428 13.0782C68.9946 12.8207 69.197 12.6405 69.4753 12.4861C69.7536 12.3573 70.0572 12.2801 70.4367 12.2801C70.8668 12.2801 71.297 12.3573 71.7018 12.4861C72.1066 12.6148 72.4355 12.7435 72.6379 12.8207L73.7258 9.83442C73.321 9.62847 72.7897 9.44826 72.1825 9.26805C71.5753 9.0621 70.8415 8.98486 69.9813 8.98486C68.8934 8.98486 67.932 9.19082 67.1477 9.57698C66.3381 9.98889 65.7309 10.5553 65.3008 11.3018C64.8707 12.0484 64.643 12.9495 64.643 13.9792V14.0307H62.29V17.4032H64.643V24.6888C64.8707 24.6888 65.149 24.6888 65.4779 24.6888C65.8068 24.6888 66.2116 24.6888 66.667 24.6888H68.6657V17.4032H72.9668V14.0307H68.6657V13.9792C68.6151 13.6188 68.691 13.3356 68.8428 13.0782Z" fill="white"/>
<path d="M94.345 7.10547C93.6113 7.10547 93.0294 7.28568 92.5993 7.67184C92.1692 8.058 91.9668 8.54714 91.9668 9.13926C91.9668 9.78286 92.1692 10.272 92.5993 10.6324C93.0294 10.9928 93.6113 11.1473 94.345 11.1473C95.0787 11.1473 95.6606 10.9671 96.0908 10.5809C96.5209 10.1948 96.7233 9.70563 96.7233 9.11351C96.7233 8.46991 96.5209 7.98077 96.0908 7.62035C95.6606 7.28568 95.0787 7.10547 94.345 7.10547Z" fill="white"/>
<path d="M96.4196 13.4128H92.2197V24.6888H96.4196V13.4128Z" fill="white"/>
<path d="M109.424 17.0943C109.93 16.9141 110.538 16.8111 111.271 16.8111C111.752 16.8111 112.207 16.8626 112.663 16.9655C113.093 17.0685 113.523 17.1972 113.928 17.3775C114.333 17.5577 114.687 17.7379 114.99 17.9438L117.293 14.906C116.458 14.3396 115.496 13.902 114.409 13.6188C113.321 13.3356 112.132 13.1812 110.841 13.1812C109.45 13.1812 108.21 13.4386 107.122 13.9277C106.034 14.4426 105.149 15.1377 104.516 16.013C103.884 16.8883 103.555 17.8923 103.555 19.0508C103.555 20.1836 103.884 21.1876 104.516 22.0629C105.149 22.9382 106.059 23.6333 107.198 24.1482C108.362 24.6631 109.677 24.8947 111.195 24.8947C112.41 24.8947 113.523 24.766 114.51 24.4828C115.496 24.2254 116.407 23.865 117.267 23.4531L115.041 20.4668C114.788 20.5697 114.484 20.6727 114.156 20.7757C113.801 20.8787 113.397 20.9816 112.916 21.0589C112.435 21.1361 111.878 21.1876 111.221 21.1876C110.512 21.1876 109.905 21.0846 109.424 20.9044C108.918 20.7242 108.539 20.4668 108.286 20.1321C108.033 19.7974 107.906 19.4112 107.906 18.9736C107.906 18.5359 108.033 18.1498 108.286 17.8151C108.539 17.5319 108.918 17.2745 109.424 17.0943Z" fill="white"/>
<path d="M139.001 13.4129H133.434L127.818 17.9439V9.08789H123.82V24.6889H127.818V21.9857L130.221 20.1321L133.839 24.6889H138.646L133.08 17.9439L139.001 13.4129Z" fill="white"/>
</g>
<defs>
<clipPath id="clip0_204_861">
<rect width="139" height="32" fill="white"/>
</clipPath>
</defs>
</svg>