<svg width="22" height="18" viewBox="0 0 22 18" fill="none" xmlns="http://www.w3.org/2000/svg">
<path fill-rule="evenodd" clip-rule="evenodd" d="M1.43373 1.60365C0.164062 2.87223 0.164063 4.9154 0.164063 9.00065C0.164063 13.0859 0.164062 15.1291 1.43373 16.3976C2.70231 17.6673 4.74548 17.6673 8.83073 17.6673H13.1641C17.2493 17.6673 19.2925 17.6673 20.5611 16.3976C21.8307 15.1291 21.8307 13.0859 21.8307 9.00065C21.8307 4.9154 21.8307 2.87223 20.5611 1.60365C19.2925 0.333984 17.2493 0.333984 13.1641 0.333984H8.83073C4.74548 0.333984 2.70231 0.333984 1.43373 1.60365ZM18.1214 4.14732C18.2592 4.31284 18.3257 4.52633 18.3062 4.74085C18.2867 4.95537 18.1828 5.15337 18.0174 5.29132L15.6384 7.27382C14.6775 8.07548 13.8996 8.72332 13.2117 9.16532C12.4967 9.62574 11.8001 9.91607 10.9974 9.91607C10.1946 9.91607 9.49806 9.62465 8.78198 9.16532C8.09515 8.72332 7.31731 8.0744 6.3564 7.2749L3.9774 5.2924C3.81176 5.15449 3.70769 4.95643 3.68808 4.74178C3.66848 4.52714 3.73494 4.3135 3.87285 4.14786C4.01077 3.98222 4.20883 3.87815 4.42347 3.85855C4.63812 3.83894 4.85176 3.90541 5.0174 4.04332L7.3574 5.99223C8.36815 6.83398 9.06906 7.41682 9.66273 7.79815C10.2358 8.16648 10.6247 8.29107 10.9985 8.29107C11.3722 8.29107 11.7611 8.16757 12.3342 7.79815C12.9268 7.41682 13.6288 6.83398 14.6396 5.99223L16.9785 4.04223C17.1441 3.90451 17.3577 3.83821 17.5722 3.85791C17.7868 3.87762 17.9836 3.98172 18.1214 4.14732Z" fill="white"/>
</svg>
