<svg width="20" height="20" viewBox="0 0 20 20" fill="none" xmlns="http://www.w3.org/2000/svg">
<path fill-rule="evenodd" clip-rule="evenodd" d="M5.66667 4.58333C5.66667 3.43406 6.12321 2.33186 6.93587 1.5192C7.74853 0.706546 8.85073 0.25 10 0.25C11.1493 0.25 12.2515 0.706546 13.0641 1.5192C13.8768 2.33186 14.3333 3.43406 14.3333 4.58333C14.3333 5.7326 13.8768 6.83481 13.0641 7.64746C12.2515 8.46012 11.1493 8.91667 10 8.91667C8.85073 8.91667 7.74853 8.46012 6.93587 7.64746C6.12321 6.83481 5.66667 5.7326 5.66667 4.58333ZM5.66667 11.0833C4.23008 11.0833 2.85233 11.654 1.8365 12.6698C0.820683 13.6857 0.25 15.0634 0.25 16.5C0.25 17.362 0.59241 18.1886 1.2019 18.7981C1.8114 19.4076 2.63805 19.75 3.5 19.75H16.5C17.362 19.75 18.1886 19.4076 18.7981 18.7981C19.4076 18.1886 19.75 17.362 19.75 16.5C19.75 15.0634 19.1793 13.6857 18.1635 12.6698C17.1477 11.654 15.7699 11.0833 14.3333 11.0833H5.66667Z" fill="white"/>
</svg>
