<svg width="24" height="22" viewBox="0 0 24 22" fill="none" xmlns="http://www.w3.org/2000/svg">
<path d="M23.034 10.8216L12.5756 0.370829C12.5003 0.295378 12.4108 0.235519 12.3124 0.194677C12.2139 0.153835 12.1084 0.132812 12.0018 0.132812C11.8952 0.132812 11.7896 0.153835 11.6911 0.194677C11.5927 0.235519 11.5032 0.295378 11.4279 0.370829L0.969531 10.8216C0.664844 11.1263 0.492188 11.5402 0.492188 11.9718C0.492188 12.8681 1.2209 13.5968 2.11719 13.5968H3.21914V21.054C3.21914 21.5034 3.58223 21.8665 4.03164 21.8665H9.37676C9.92904 21.8665 10.3768 21.4188 10.3768 20.8665V17.179C10.3768 16.6267 10.8245 16.179 11.3768 16.179H12.2205C12.7728 16.179 13.2205 16.6267 13.2205 17.179V20.8665C13.2205 21.4188 13.6682 21.8665 14.2205 21.8665H19.9719C20.4213 21.8665 20.7844 21.5034 20.7844 21.054V13.5968H21.8863C22.318 13.5968 22.7318 13.4267 23.0365 13.1195C23.6687 12.4847 23.6687 11.4564 23.034 10.8216Z" fill="white"/>
</svg>
