<svg width="20" height="22" viewBox="0 0 20 22" fill="none" xmlns="http://www.w3.org/2000/svg">
<path fill-rule="evenodd" clip-rule="evenodd" d="M19.75 10.0222V15.4313C19.75 18.7853 19.75 20.4634 18.9548 21.1957C18.5757 21.5456 18.0968 21.7655 17.5866 21.824C16.5173 21.9464 15.2683 20.8414 12.7712 18.6325C11.6662 17.6564 11.1147 17.1679 10.4767 17.04C10.1621 16.9765 9.83794 16.9765 9.52333 17.04C8.88417 17.1679 8.33275 17.6564 7.22883 18.6325C4.73175 20.8414 3.48267 21.9464 2.41342 21.8229C1.90234 21.7643 1.42316 21.5446 1.04517 21.1957C0.25 20.4634 0.25 18.7863 0.25 15.4313V10.0211C0.25 5.37685 0.25 3.05418 1.67783 1.6101C3.10567 0.166016 5.4045 0.166016 10 0.166016C14.5966 0.166016 16.8943 0.166016 18.3222 1.60902C19.75 3.0531 19.75 5.37685 19.75 10.0222ZM5.9375 4.49935C5.9375 4.28386 6.0231 4.0772 6.17548 3.92482C6.32785 3.77245 6.53451 3.68685 6.75 3.68685H13.25C13.4655 3.68685 13.6722 3.77245 13.8245 3.92482C13.9769 4.0772 14.0625 4.28386 14.0625 4.49935C14.0625 4.71484 13.9769 4.9215 13.8245 5.07387C13.6722 5.22625 13.4655 5.31185 13.25 5.31185H6.75C6.53451 5.31185 6.32785 5.22625 6.17548 5.07387C6.0231 4.9215 5.9375 4.71484 5.9375 4.49935Z" fill="white"/>
</svg>
