<svg width="22" height="22" viewBox="0 0 22 22" fill="none" xmlns="http://www.w3.org/2000/svg">
<path d="M10.9974 0.166016C16.9807 0.166016 21.8307 5.0161 21.8307 10.9993C21.8307 16.9826 16.9807 21.8327 10.9974 21.8327C9.21834 21.8355 7.46619 21.3982 5.89708 20.5598L1.69798 21.4921C0.983491 21.6507 0.346227 21.0133 0.505052 20.2989L1.43808 16.1018C0.598896 14.5322 0.161218 12.7792 0.164076 10.9993C0.164076 5.0161 5.01416 0.166016 10.9974 0.166016ZM12.0807 6.58268C12.0807 6.0304 11.633 5.58268 11.0807 5.58268H10.9141C10.3618 5.58268 9.91408 6.0304 9.91408 6.58268V12.166C9.91408 12.7183 10.3618 13.166 10.9141 13.166H15.4141C15.9664 13.166 16.4141 12.7183 16.4141 12.166V11.9994C16.4141 11.4471 15.9664 10.9993 15.4141 10.9993H13.0807C12.5285 10.9993 12.0807 10.5516 12.0807 9.99935V6.58268Z" fill="white"/>
</svg>
