<svg xmlns="http://www.w3.org/2000/svg" width="135" height="135" viewBox="0 0 135 135" fill="none">
<path d="M50.7157 26.4707H39.5257C36.4356 26.4707 33.9307 28.9757 33.9307 32.0657V99.2057C33.9307 102.296 36.4356 104.801 39.5257 104.801H50.7157C53.8057 104.801 56.3107 102.296 56.3107 99.2057V32.0657C56.3107 28.9757 53.8057 26.4707 50.7157 26.4707Z" fill="white"/>
<path d="M95.4754 26.4707H84.2854C81.1954 26.4707 78.6904 28.9757 78.6904 32.0657V99.2057C78.6904 102.296 81.1954 104.801 84.2854 104.801H95.4754C98.5655 104.801 101.07 102.296 101.07 99.2057V32.0657C101.07 28.9757 98.5655 26.4707 95.4754 26.4707Z" fill="white"/>
</svg>