<svg width="36" height="36" viewBox="0 0 36 36" fill="none" xmlns="http://www.w3.org/2000/svg">
<g clip-path="url(#clip0_495_1247)">
<path d="M19.5 19.5C21.0913 19.5 22.6174 20.1321 23.7426 21.2574C24.8679 22.3826 25.5 23.9087 25.5 25.5V27.75C25.5 28.3467 25.2629 28.919 24.841 29.341C24.419 29.7629 23.8467 30 23.25 30H5.25C4.65326 30 4.08097 29.7629 3.65901 29.341C3.23705 28.919 3 28.3467 3 27.75V25.5C3 23.9087 3.63214 22.3826 4.75736 21.2574C5.88258 20.1321 7.4087 19.5 9 19.5H19.5ZM28.5 19.5C29.6935 19.5 30.8381 19.9741 31.682 20.818C32.5259 21.6619 33 22.8065 33 24V26.25C33 26.8467 32.7629 27.419 32.341 27.841C31.919 28.2629 31.3467 28.5 30.75 28.5H28.5V25.5C28.5009 24.3355 28.2303 23.1868 27.7095 22.1453C27.1887 21.1037 26.4322 20.198 25.5 19.5H28.5ZM14.25 4.5C16.0402 4.5 17.7571 5.21116 19.023 6.47703C20.2888 7.7429 21 9.45979 21 11.25C21 13.0402 20.2888 14.7571 19.023 16.023C17.7571 17.2888 16.0402 18 14.25 18C12.4598 18 10.7429 17.2888 9.47703 16.023C8.21116 14.7571 7.5 13.0402 7.5 11.25C7.5 9.45979 8.21116 7.7429 9.47703 6.47703C10.7429 5.21116 12.4598 4.5 14.25 4.5ZM27 9C28.1935 9 29.3381 9.47411 30.182 10.318C31.0259 11.1619 31.5 12.3065 31.5 13.5C31.5 14.6935 31.0259 15.8381 30.182 16.682C29.3381 17.5259 28.1935 18 27 18C25.8065 18 24.6619 17.5259 23.818 16.682C22.9741 15.8381 22.5 14.6935 22.5 13.5C22.5 12.3065 22.9741 11.1619 23.818 10.318C24.6619 9.47411 25.8065 9 27 9Z" fill="white"/>
</g>
<defs>
<clipPath id="clip0_495_1247">
<rect width="36" height="36" fill="white"/>
</clipPath>
</defs>
</svg>
