<svg xmlns="http://www.w3.org/2000/svg" width="36" height="36" viewBox="0 0 36 36" fill="none">
  <path d="M30.6921 18.0001C30.6929 18.3256 30.6107 18.6457 30.4535 18.9293C30.2964 19.213 30.0696 19.4505 29.7952 19.6188L12.7928 30.1795C12.5061 30.3577 12.1778 30.455 11.8417 30.4613C11.5057 30.4676 11.174 30.3828 10.8811 30.2154C10.5909 30.0507 10.3492 29.8105 10.1808 29.5194C10.0124 29.2284 9.92334 28.8971 9.92285 28.5596V7.44066C9.92334 7.10312 10.0124 6.7718 10.1808 6.48078C10.3492 6.18975 10.5909 5.94952 10.8811 5.7848C11.174 5.61747 11.5057 5.53258 11.8417 5.5389C12.1778 5.54522 12.5061 5.64252 12.7928 5.82074L29.7952 16.3814C30.0696 16.5497 30.2964 16.7872 30.4535 17.0709C30.6107 17.3545 30.6929 17.6747 30.6921 18.0001Z" fill="white"/>
</svg>