<svg xmlns="http://www.w3.org/2000/svg" width="36" height="36" viewBox="0 0 36 36" fill="none">
  <path fill-rule="evenodd" clip-rule="evenodd" d="M23.2945 16.2572L9.07818 6.28704C8.35818 5.82731 7.48182 5.95101 6.84909 6.43659C6.59232 6.62753 6.3822 6.87585 6.23497 7.16238C6.08775 7.4489 6.00735 7.76596 6 8.08905V27.8539C6 29.4861 7.78 30.5422 9.07818 29.7077L23.2964 19.7984C24.4782 18.9879 24.4782 17.0659 23.2964 16.2553L23.2945 16.2572ZM31 8.29215C31 7.80247 30.8084 7.33285 30.4675 6.9866C30.1265 6.64035 29.664 6.44583 29.1818 6.44583C28.6996 6.44583 28.2371 6.64035 27.8962 6.9866C27.5552 7.33285 27.3636 7.80247 27.3636 8.29215V27.7081C27.3636 28.1978 27.5552 28.6674 27.8962 29.0136C28.2371 29.3599 28.6996 29.5544 29.1818 29.5544C29.664 29.5544 30.1265 29.3599 30.4675 29.0136C30.8084 28.6674 31 28.1978 31 27.7081V8.29215Z" fill="white"/>
</svg>