<svg width="36" height="36" viewBox="0 0 36 36" fill="none" xmlns="http://www.w3.org/2000/svg">
<path d="M5.80168 21.2554C5.2771 20.3809 5 19.3803 5 18.3604C5 17.3406 5.2771 16.34 5.80168 15.4654C5.96299 15.1962 6.17885 14.9637 6.43537 14.7829C6.69189 14.6021 6.9834 14.4769 7.29118 14.4154L9.83068 13.9069C9.98213 13.877 10.1187 13.796 10.2177 13.6774L13.3197 9.95295C15.0927 7.82295 15.9807 6.75945 16.7712 7.04595C17.5647 7.33245 17.5647 8.71845 17.5647 11.4904V25.2334C17.5647 28.0039 17.5647 29.3884 16.7727 29.6764C15.9822 29.9614 15.0942 28.8979 13.3212 26.7694L10.2147 23.0434C10.1161 22.9252 9.98009 22.8443 9.82918 22.8139L7.28968 22.3054C6.9819 22.244 6.69039 22.1188 6.43387 21.938C6.17735 21.7572 5.96299 21.5247 5.80168 21.2554Z" fill="white"/>
<path d="M21.3691 13.0566C22.7687 14.4561 23.5583 16.3521 23.5659 18.3313C23.5735 20.3105 22.7984 22.2125 21.4096 23.6226" stroke="white" stroke-width="3" stroke-linecap="round"/>
</svg>
