<svg xmlns="http://www.w3.org/2000/svg" width="36" height="36" viewBox="0 0 36 36" fill="none">
  <path d="M7.52034 19.5C8.27034 19.5 8.88533 20.055 8.99034 20.79C9.17145 22.0391 9.61303 23.2363 10.2865 24.3038C10.9599 25.3714 11.8501 26.2856 12.8995 26.987C13.9489 27.6885 15.1339 28.1616 16.3779 28.3757C17.6218 28.5898 18.8968 28.5402 20.1203 28.23C23.4953 27.42 25.9853 24.825 26.7053 21.435C26.991 20.1193 26.9785 18.7565 26.6689 17.4463C26.3593 16.1361 25.7604 14.9119 24.916 13.8633C24.0717 12.8147 23.0034 11.9684 21.7894 11.3864C20.5754 10.8044 19.2466 10.5015 17.9003 10.5V14.685C17.9003 15.36 17.0903 15.69 16.6253 15.21L10.9403 9.52495C10.6403 9.22495 10.6403 8.75995 10.9403 8.45995L16.6253 2.77495C16.7311 2.6713 16.8651 2.60126 17.0106 2.57368C17.1561 2.54609 17.3065 2.56219 17.4428 2.61993C17.5792 2.67768 17.6954 2.7745 17.7768 2.89818C17.8582 3.02187 17.9012 3.16688 17.9003 3.31495V7.49995C25.3103 7.49995 31.1603 14.22 29.6603 21.9C28.7603 26.565 25.3103 30.15 20.6753 31.185C13.4303 32.805 6.95033 27.885 6.02034 21.18C5.88534 20.295 6.62033 19.5 7.52034 19.5Z" fill="white"/>
  <path d="M14.4233 17.0994C14.9756 17.0994 15.4233 17.5471 15.4233 18.0994V23.495C15.4233 23.9795 15.0306 24.3722 14.5462 24.3722C14.0617 24.3722 13.669 23.9795 13.669 23.495V18.7401H13.6264L12.9887 19.13C12.5557 19.3946 12 19.0831 12 18.5756C12 18.351 12.116 18.1424 12.3067 18.0238L13.5508 17.2502C13.7093 17.1517 13.8922 17.0994 14.0789 17.0994H14.4233Z" fill="white"/>
  <path d="M20.0389 24.5497C19.4044 24.5497 18.8575 24.3994 18.3983 24.0987C17.939 23.7957 17.585 23.3613 17.3365 22.7955C17.0879 22.2273 16.9648 21.5443 16.9672 20.7464C16.9695 19.9486 17.0938 19.2715 17.34 18.7152C17.5886 18.1565 17.9413 17.7315 18.3983 17.4403C18.8575 17.1468 19.4044 17 20.0389 17C20.6734 17 21.2202 17.1468 21.6795 17.4403C22.1412 17.7315 22.4963 18.1565 22.7449 18.7152C22.9934 19.2739 23.1165 19.951 23.1142 20.7464C23.1142 21.5466 22.9899 22.2308 22.7413 22.799C22.4927 23.3672 22.1388 23.8016 21.6795 24.1023C21.2226 24.4006 20.6757 24.5497 20.0389 24.5497ZM20.0389 23.1115C20.4177 23.1115 20.7243 22.9186 20.9586 22.5327C21.193 22.1444 21.309 21.549 21.3066 20.7464C21.3066 20.2209 21.2534 19.7876 21.1468 19.4467C21.0403 19.1035 20.8923 18.8478 20.7029 18.6797C20.5136 18.5116 20.2922 18.4276 20.0389 18.4276C19.6625 18.4276 19.3583 18.6181 19.1262 18.9993C18.8942 19.3781 18.777 19.9605 18.7747 20.7464C18.7723 21.2791 18.8232 21.7206 18.9274 22.071C19.0339 22.4214 19.1831 22.683 19.3748 22.8558C19.5666 23.0263 19.7879 23.1115 20.0389 23.1115Z" fill="white"/>
</svg>