<svg xmlns="http://www.w3.org/2000/svg" width="36" height="36" viewBox="0 0 36 36" fill="none">
	<path d="M28.3801 19.5C27.6301 19.5 27.0151 20.055 26.9101 20.79C26.7289 22.0391 26.2874 23.2363 25.6139 24.3038C24.9405 25.3714 24.0502 26.2856 23.0009 26.987C21.9515 27.6885 20.7665 28.1616 19.5225 28.3757C18.2786 28.5898 17.0036 28.5402 15.7801 28.23C12.4051 27.42 9.91505 24.825 9.19505 21.435C8.90941 20.1193 8.92186 18.7565 9.23147 17.4463C9.54108 16.1361 10.14 14.9119 10.9844 13.8633C11.8287 12.8147 12.897 11.9684 14.111 11.3864C15.325 10.8044 16.6538 10.5015 18.0001 10.5V14.685C18.0001 15.36 18.8101 15.69 19.2751 15.21L24.9601 9.52495C25.2601 9.22495 25.2601 8.75995 24.9601 8.45995L19.2751 2.77495C19.1693 2.6713 19.0353 2.60126 18.8898 2.57368C18.7443 2.54609 18.5939 2.56219 18.4575 2.61993C18.3212 2.67768 18.205 2.7745 18.1236 2.89818C18.0422 3.02187 17.9992 3.16688 18.0001 3.31495V7.49995C10.5901 7.49995 4.74005 14.22 6.24005 21.9C7.14005 26.565 10.5901 30.15 15.2251 31.185C22.4701 32.805 28.9501 27.885 29.8801 21.18C30.0151 20.295 29.2801 19.5 28.3801 19.5Z" fill="white"/>
	<path d="M14.4233 17.0994C14.9756 17.0994 15.4233 17.5471 15.4233 18.0994V23.495C15.4233 23.9795 15.0306 24.3722 14.5462 24.3722C14.0617 24.3722 13.669 23.9795 13.669 23.495V18.7401H13.6264L12.9887 19.13C12.5557 19.3946 12 19.0831 12 18.5756C12 18.351 12.116 18.1424 12.3067 18.0238L13.5508 17.2502C13.7093 17.1517 13.8922 17.0994 14.0789 17.0994H14.4233Z" fill="white"/>
	<path d="M20.0389 24.5497C19.4044 24.5497 18.8575 24.3994 18.3983 24.0987C17.939 23.7957 17.585 23.3613 17.3365 22.7955C17.0879 22.2273 16.9648 21.5443 16.9672 20.7464C16.9695 19.9486 17.0938 19.2715 17.34 18.7152C17.5886 18.1565 17.9413 17.7315 18.3983 17.4403C18.8575 17.1468 19.4044 17 20.0389 17C20.6734 17 21.2202 17.1468 21.6795 17.4403C22.1412 17.7315 22.4963 18.1565 22.7449 18.7152C22.9934 19.2739 23.1165 19.951 23.1142 20.7464C23.1142 21.5466 22.9899 22.2308 22.7413 22.799C22.4927 23.3672 22.1388 23.8016 21.6795 24.1023C21.2226 24.4006 20.6757 24.5497 20.0389 24.5497ZM20.0389 23.1115C20.4177 23.1115 20.7243 22.9186 20.9586 22.5327C21.193 22.1444 21.309 21.549 21.3066 20.7464C21.3066 20.2209 21.2534 19.7876 21.1468 19.4467C21.0403 19.1035 20.8923 18.8478 20.7029 18.6797C20.5136 18.5116 20.2922 18.4276 20.0389 18.4276C19.6625 18.4276 19.3583 18.6181 19.1262 18.9993C18.8942 19.3781 18.777 19.9605 18.7747 20.7464C18.7723 21.2791 18.8232 21.7206 18.9274 22.071C19.0339 22.4214 19.1831 22.683 19.3748 22.8558C19.5666 23.0263 19.7879 23.1115 20.0389 23.1115Z" fill="white"/>
</svg>