<svg xmlns="http://www.w3.org/2000/svg" width="36" height="36" viewBox="0 0 36 36" fill="none">
<path d="M7.19961 5.40002C6.24483 5.40002 5.32916 5.77931 4.65402 6.45444C3.97889 7.12957 3.59961 8.04524 3.59961 9.00002V19.8C3.59961 20.7548 3.97889 21.6705 4.65402 22.3456C5.32916 23.0207 6.24483 23.4 7.19961 23.4H21.5996C22.5544 23.4 23.4701 23.0207 24.1452 22.3456C24.8203 21.6705 25.1996 20.7548 25.1996 19.8V9.00002C25.1996 8.04524 24.8203 7.12957 24.1452 6.45444C23.4701 5.77931 22.5544 5.40002 21.5996 5.40002H7.19961ZM7.68201 25.2C7.99797 25.7473 8.45241 26.2017 8.99966 26.5177C9.54691 26.8337 10.1677 27 10.7996 27H21.5996C23.5092 27 25.3405 26.2415 26.6908 24.8912C28.041 23.5409 28.7996 21.7096 28.7996 19.8V12.6C28.7996 11.9681 28.6332 11.3473 28.3173 10.8001C28.0013 10.2528 27.5469 9.79838 26.9996 9.48242V19.8C26.9996 21.2322 26.4307 22.6057 25.418 23.6184C24.4053 24.6311 23.0318 25.2 21.5996 25.2H7.68201ZM11.282 28.8C11.598 29.3473 12.0524 29.8017 12.5997 30.1177C13.1469 30.4337 13.7677 30.6 14.3996 30.6H21.5996C24.4639 30.6 27.211 29.4622 29.2364 27.4368C31.2618 25.4114 32.3996 22.6644 32.3996 19.8V16.2C32.3996 15.5681 32.2332 14.9473 31.9173 14.4001C31.6013 13.8528 31.1469 13.3984 30.5996 13.0824V19.8C30.5996 22.187 29.6514 24.4762 27.9636 26.164C26.2757 27.8518 23.9866 28.8 21.5996 28.8H11.282Z" fill="white"/>
</svg>